<svg version="1.1" xmlns="http://www.w3.org/2000/svg" xmlns:xlink="http://www.w3.org/1999/xlink" width="126.29272" height="104.66861" viewBox="0,0,126.29272,104.66861"><defs><linearGradient x1="176.85489" y1="180.00038" x2="303.14622" y2="180.00038" gradientUnits="userSpaceOnUse" id="color-1"><stop offset="0.012" stop-color="#a7a9ac"/><stop offset="1" stop-color="#414042"/></linearGradient><linearGradient x1="181.59165" y1="179.99866" x2="298.40822" y2="179.99866" gradientUnits="userSpaceOnUse" id="color-2"><stop offset="0" stop-color="#d1d2d3"/><stop offset="1" stop-color="#a4a5a8"/></linearGradient></defs><g transform="translate(-176.85364,-127.6657)"><g data-paper-data="{&quot;isPaintingLayer&quot;:true}" fill-rule="nonzero" stroke="none" stroke-width="1" stroke-linecap="butt" stroke-linejoin="miter" stroke-miterlimit="10" stroke-dasharray="" stroke-dashoffset="0" style="mix-blend-mode: normal"><path d="M303.14636,215.86018c0,9.09762 -5.34865,16.47413 -11.94216,16.47413h-102.40978c-6.59491,0 -11.94078,-7.37842 -11.94078,-16.47413v-71.72227c0,-9.09762 5.34587,-16.47221 11.94078,-16.47221h102.40839c6.59768,0 11.94216,7.37459 11.94216,16.47221v71.72227z" fill="url(#color-1)"/><path d="M298.40697,144.13791v71.72036c0,5.47925 -3.22945,9.93617 -7.20416,9.93617h-102.40839c-3.97054,0 -7.20277,-4.45692 -7.20277,-9.93617v-71.72227c0,-5.47925 3.23223,-9.93617 7.20277,-9.93617h102.40839c3.97471,0 7.20416,4.45883 7.20416,9.93808z" fill="url(#color-2)"/><text transform="translate(186.97009,142.46426) scale(0.13013,0.13013)" font-size="40" xml:space="preserve" fill="#141414" fill-rule="nonzero" stroke="none" stroke-width="1" stroke-linecap="butt" stroke-linejoin="miter" stroke-miterlimit="10" stroke-dasharray="" stroke-dashoffset="0" font-family="Pixel" font-weight="normal" text-anchor="start" style="mix-blend-mode: normal"><tspan x="0" dy="0">Medium</tspan><tspan x="0" dy="46.150000000000006px">The balls follow the following sequence:</tspan><tspan x="0" dy="46.150000000000006px">Yellow</tspan><tspan x="0" dy="46.150000000000006px">Yellow</tspan><tspan x="0" dy="46.150000000000006px">Red</tspan><tspan x="0" dy="46.150000000000006px">Yellow</tspan><tspan x="0" dy="46.150000000000006px">Yellow</tspan><tspan x="0" dy="46.150000000000006px">Red</tspan><tspan x="0" dy="46.150000000000006px">Yellow</tspan><tspan x="0" dy="46.150000000000006px">Yellow</tspan><tspan x="0" dy="46.150000000000006px">Red</tspan><tspan x="0" dy="46.150000000000006px">Yellow</tspan><tspan x="0" dy="46.150000000000006px">A ball spawns every 10 seconds</tspan><tspan x="0" dy="46.150000000000006px">You start with 3 lives</tspan></text></g></g></svg>